<svg xmlns="http://www.w3.org/2000/svg" viewBox="0 0 1200 720" fill="none">
  <rect width="1200" height="720" rx="18" fill="#f5f7fa"/>
  <rect x="32" y="32" width="1136" height="72" rx="12" fill="#263238"/>
  <text x="64" y="78" fill="#ffffff" font-family="'Segoe UI', sans-serif" font-size="32" font-weight="600">Aesthetic Scan</text>
  <rect x="64" y="132" width="520" height="60" rx="10" fill="#ffffff" stroke="#cfd8dc" stroke-width="2"/>
  <text x="82" y="170" fill="#78909c" font-family="'Segoe UI', sans-serif" font-size="22">/Users/mike/Pictures/portfolio</text>
  <rect x="604" y="132" width="220" height="60" rx="10" fill="#1e88e5"/>
  <text x="646" y="170" fill="#ffffff" font-family="'Segoe UI', sans-serif" font-size="22" font-weight="600">Scan folder</text>
  <rect x="844" y="132" width="120" height="60" rx="10" fill="#ffffff" stroke="#cfd8dc" stroke-width="2"/>
  <text x="872" y="170" fill="#455a64" font-family="'Segoe UI', sans-serif" font-size="22">0.80</text>
  <text x="974" y="168" fill="#90a4ae" font-family="'Segoe UI', sans-serif" font-size="18">Min score</text>
  <rect x="64" y="216" width="1072" height="420" rx="14" fill="#ffffff" stroke="#cfd8dc" stroke-width="2"/>
  <rect x="64" y="216" width="1072" height="64" rx="14" fill="#eceff1"/>
  <text x="94" y="258" fill="#455a64" font-family="'Segoe UI', sans-serif" font-size="22" font-weight="600">Top matches</text>
  <text x="94" y="308" fill="#90a4ae" font-family="'Segoe UI', sans-serif" font-size="18">File</text>
  <text x="704" y="308" fill="#90a4ae" font-family="'Segoe UI', sans-serif" font-size="18">Score</text>
  <text x="914" y="308" fill="#90a4ae" font-family="'Segoe UI', sans-serif" font-size="18">Actions</text>
  <rect x="94" y="324" width="1012" height="72" fill="#fafafa"/>
  <text x="106" y="366" fill="#263238" font-family="'Segoe UI', sans-serif" font-size="20">golden-hour-river.jpg</text>
  <text x="706" y="366" fill="#1b5e20" font-family="'Segoe UI', sans-serif" font-size="20" font-weight="600">0.94</text>
  <rect x="904" y="342" width="160" height="40" rx="8" fill="#1e88e5"/>
  <text x="940" y="368" fill="#ffffff" font-family="'Segoe UI', sans-serif" font-size="20">Reveal file</text>
  <rect x="94" y="396" width="1012" height="72" fill="#ffffff"/>
  <text x="106" y="438" fill="#263238" font-family="'Segoe UI', sans-serif" font-size="20">forest-mist-panorama.heic</text>
  <text x="706" y="438" fill="#1b5e20" font-family="'Segoe UI', sans-serif" font-size="20" font-weight="600">0.91</text>
  <rect x="904" y="414" width="160" height="40" rx="8" fill="#1e88e5"/>
  <text x="940" y="440" fill="#ffffff" font-family="'Segoe UI', sans-serif" font-size="20">Reveal file</text>
  <rect x="94" y="468" width="1012" height="72" fill="#fafafa"/>
  <text x="106" y="510" fill="#263238" font-family="'Segoe UI', sans-serif" font-size="20">city-nightscape.tif</text>
  <text x="706" y="510" fill="#33691e" font-family="'Segoe UI', sans-serif" font-size="20" font-weight="600">0.88</text>
  <rect x="904" y="486" width="160" height="40" rx="8" fill="#1e88e5"/>
  <text x="940" y="512" fill="#ffffff" font-family="'Segoe UI', sans-serif" font-size="20">Reveal file</text>
  <text x="64" y="674" fill="#90a4ae" font-family="'Segoe UI', sans-serif" font-size="18">Results sorted by descending aesthetic score. Click "Reveal" to locate the file in Finder.</text>
</svg>
